<svg height="18" viewBox="0 0 18 18" width="18" xmlns="http://www.w3.org/2000/svg"><path d="m260.505247 12.7473854c0-3.73199382-3.025868-6.75786147-6.757862-6.75786147-3.731993 0-6.757861 3.02586765-6.757861 6.75786147 0 3.7319938 3.025868 6.7578614 6.757861 6.7578614 3.731994 0 6.757862-3.0258676 6.757862-6.7578614zm-6.757862 5.0683961c-2.794868 0-5.068396-2.2735277-5.068396-5.0683961 0-2.7948685 2.273528-5.06839611 5.068396-5.06839611 2.794869 0 5.068396 2.27352761 5.068396 5.06839611 0 2.7948684-2.273527 5.0683961-5.068396 5.0683961zm10.76816 3.3107537-4.134579-4.1345793c-.615951.9580325-1.430978 1.7730587-2.38901 2.3890096l4.134579 4.1345793c.659948.6599474 1.730154.6599474 2.38901 0 .659947-.6588563.659947-1.7290622 0-2.3890096z" fill="#898989" fill-rule="evenodd" transform="translate(-247 -6)"/></svg>