<svg height="30" viewBox="0 0 30 30" width="30" xmlns="http://www.w3.org/2000/svg"><path d="m31.8730401 18.2978279c-4.8351504-2.8714639-12.8106229-3.135486-17.426352-1.7345928-.7413754.2249741-1.5252021-.193449-1.7498179-.9346452-.2246158-.7417337.193449-1.525023.9351826-1.7503553 5.2985324-1.6083135 14.1067313-1.2977204 19.6730473 2.0064961.6666826.3958539.8853875 1.2568811.49025 1.922489-.3954958.6666826-1.2572395.8864622-1.92231.4906082zm-.1583416 4.2530122c-.3392522.550434-1.0589541.7231052-1.6086717.3851068-4.0310832-2.4777593-10.1779253-3.1956701-14.9469807-1.7480267-.6184994.1868216-1.2715689-.1617449-1.4594652-.7791696-.1862843-.6183204.1624613-1.2703151.779886-1.4583906 5.4479181-1.6532725 12.2206036-.8526085 16.8504831 1.9927039.5497176.3385358.7227469 1.0585959.3847485 1.6077762zm-1.8354369 4.0844608c-.2695748.4420668-.8450856.5805261-1.2855403.3111304-3.522384-2.1528366-7.9559486-2.6389668-13.1772805-1.4463895-.5031466.1153529-1.004681-.1998973-1.1194966-.7030438-.1151738-.5029675.1990017-1.0045019.703223-1.1193175 5.7139104-1.306139 10.6151559-.7440622 14.5688595 1.671901.4408129.2692165.5796305.8450855.3102349 1.2857194zm-21.8792616-6.63548c0 8.284991 6.7159046 15.0001791 15 15.0001791 8.2844536 0 15-6.7151881 15-15.0001791 0-8.2840954-6.7155464-14.9998209-15-14.9998209-8.2840954 0-15 6.7157255-15 14.9998209z" fill="#fffffe" fill-rule="evenodd" transform="translate(-8 -5)"/></svg>